<?xml version="1.0" encoding="UTF-8" standalone="no"?>
<!DOCTYPE svg PUBLIC "-//W3C//DTD SVG 1.1//EN" "http://www.w3.org/Graphics/SVG/1.1/DTD/svg11.dtd">
<!-- Created with Vectornator (http://vectornator.io/) -->
<svg height="100%" stroke-miterlimit="10" style="fill-rule:nonzero;clip-rule:evenodd;stroke-linecap:round;stroke-linejoin:round;" version="1.1" viewBox="0 0 24 24" width="100%" xml:space="preserve" xmlns="http://www.w3.org/2000/svg" xmlns:vectornator="http://vectornator.io" xmlns:xlink="http://www.w3.org/1999/xlink">
<defs/>
<g id="Untitled" vectornator:layerName="Untitled">
<path d="M3 9.8541C3 8.83011 3.83011 8 4.8541 8L4.8541 8C5.55638 8 6.19839 7.60322 6.51246 6.97508L7.33333 5.33333C7.44329 5.11342 7.49827 5.00346 7.56062 4.90782C7.8859 4.40882 8.41668 4.08078 9.00848 4.01299C9.1219 4 9.24484 4 9.49071 4L14.5093 4C14.7552 4 14.8781 4 14.9915 4.01299C15.5833 4.08078 16.1141 4.40882 16.4394 4.90782C16.5017 5.00346 16.5567 5.11342 16.6667 5.33333L17.4875 6.97508C17.8016 7.60322 18.4436 8 19.1459 8L19.1459 8C20.1699 8 21 8.83011 21 9.8541L21 14.8571C21 16.8619 21 17.8643 20.5402 18.5961C20.3004 18.9777 19.9777 19.3004 19.5961 19.5402C18.8643 20 17.8619 20 15.8571 20L8.14286 20C6.1381 20 5.13571 20 4.4039 19.5402C4.02229 19.3004 3.69961 18.9777 3.45983 18.5961C3 17.8643 3 16.8619 3 14.8571L3 9.8541Z" fill="none" opacity="1" stroke="#000000" stroke-linecap="butt" stroke-linejoin="miter" stroke-width="2" vectornator:layerName="path"/>
<path d="M9 13C9 11.3431 10.3431 10 12 10C13.6569 10 15 11.3431 15 13C15 14.6569 13.6569 16 12 16C10.3431 16 9 14.6569 9 13Z" fill="none" opacity="1" stroke="#000000" stroke-linecap="butt" stroke-linejoin="miter" stroke-width="2" vectornator:layerName="circle"/>
</g>
</svg>
