<?xml version="1.0" encoding="UTF-8" standalone="no"?>
<!DOCTYPE svg PUBLIC "-//W3C//DTD SVG 1.1//EN" "http://www.w3.org/Graphics/SVG/1.1/DTD/svg11.dtd">
<!-- Created with Vectornator (http://vectornator.io/) -->
<svg height="100%" stroke-miterlimit="10" style="fill-rule:nonzero;clip-rule:evenodd;stroke-linecap:round;stroke-linejoin:round;" version="1.1" viewBox="0 0 20 20" width="100%" xml:space="preserve" xmlns="http://www.w3.org/2000/svg" xmlns:vectornator="http://vectornator.io" xmlns:xlink="http://www.w3.org/1999/xlink">
<defs/>
<g id="Untitled" vectornator:layerName="Untitled">
<path d="M6.66667 6.66675L13.3333 6.66675C13.7933 6.66675 14.1667 6.29425 14.1667 5.83341L14.1667 2.50008C14.1667 2.03925 13.7933 1.66675 13.3333 1.66675L6.66667 1.66675C6.20667 1.66675 5.83333 2.03925 5.83333 2.50008L5.83333 5.83341C5.83333 6.29425 6.20667 6.66675 6.66667 6.66675ZM15 5.83342L15 3.33341C16.3783 3.33341 17.5 4.45508 17.5 5.83342L17.5 15.8334C17.5 17.2117 16.3783 18.3334 15 18.3334L5 18.3334C3.62167 18.3334 2.5 17.2117 2.5 15.8334L2.5 5.83342C2.5 4.45508 3.62167 3.33341 5 3.33341L5 5.83342C5 6.75258 5.7475 7.50008 6.66667 7.50008L13.3333 7.50008C14.2525 7.50008 15 6.75258 15 5.83342Z" fill="#100f0d" fill-rule="evenodd" opacity="1" stroke="none" vectornator:layerName="path"/>
<g opacity="1" vectornator:layerName="path">
<clipPath clip-rule="evenodd" id="ClipPath">
<path d="M6.66667 6.66675L13.3333 6.66675C13.7933 6.66675 14.1667 6.29425 14.1667 5.83341L14.1667 2.50008C14.1667 2.03925 13.7933 1.66675 13.3333 1.66675L6.66667 1.66675C6.20667 1.66675 5.83333 2.03925 5.83333 2.50008L5.83333 5.83341C5.83333 6.29425 6.20667 6.66675 6.66667 6.66675ZM15 5.83342L15 3.33341C16.3783 3.33341 17.5 4.45508 17.5 5.83342L17.5 15.8334C17.5 17.2117 16.3783 18.3334 15 18.3334L5 18.3334C3.62167 18.3334 2.5 17.2117 2.5 15.8334L2.5 5.83342C2.5 4.45508 3.62167 3.33341 5 3.33341L5 5.83342C5 6.75258 5.7475 7.50008 6.66667 7.50008L13.3333 7.50008C14.2525 7.50008 15 6.75258 15 5.83342Z"/>
</clipPath>
<g clip-path="url(#ClipPath)">
<path d="M0 0L20 0L20 0L20 20L20 20L0 20L0 20L0 0L0 0Z" fill="#100f0d" fill-rule="nonzero" opacity="1" stroke="none" vectornator:layerName="rect"/>
</g>
</g>
</g>
</svg>
