<?xml version="1.0" encoding="UTF-8" standalone="no"?>
<!DOCTYPE svg PUBLIC "-//W3C//DTD SVG 1.1//EN" "http://www.w3.org/Graphics/SVG/1.1/DTD/svg11.dtd">
<!-- Created with Vectornator (http://vectornator.io/) -->
<svg height="100%" stroke-miterlimit="10" style="fill-rule:nonzero;clip-rule:evenodd;stroke-linecap:round;stroke-linejoin:round;" version="1.1" viewBox="0 0 24 24" width="100%" xml:space="preserve" xmlns="http://www.w3.org/2000/svg" xmlns:vectornator="http://vectornator.io" xmlns:xlink="http://www.w3.org/1999/xlink">
<defs/>
<g id="Untitled" vectornator:layerName="Untitled">
<path d="M4 9C4 7.11438 4 6.17157 4.58579 5.58579C5.17157 5 6.11438 5 8 5L8.34315 5C9.16065 5 9.5694 5 9.93694 5.15224C10.3045 5.30448 10.5935 5.59351 11.1716 6.17157L11.8284 6.82843C12.4065 7.40649 12.6955 7.69552 13.0631 7.84776C13.4306 8 13.8394 8 14.6569 8L16 8C17.8856 8 18.8284 8 19.4142 8.58579C20 9.17157 20 10.1144 20 12L20 15C20 16.8856 20 17.8284 19.4142 18.4142C18.8284 19 17.8856 19 16 19L8 19C6.11438 19 5.17157 19 4.58579 18.4142C4 17.8284 4 16.8856 4 15L4 9Z" fill="none" opacity="1" stroke="#000000" stroke-linecap="butt" stroke-linejoin="miter" stroke-width="2" vectornator:layerName="path"/>
</g>
</svg>
