<?xml version="1.0" encoding="UTF-8" standalone="no"?>
<!DOCTYPE svg PUBLIC "-//W3C//DTD SVG 1.1//EN" "http://www.w3.org/Graphics/SVG/1.1/DTD/svg11.dtd">
<!-- Created with Vectornator (http://vectornator.io/) -->
<svg height="100%" stroke-miterlimit="10" style="fill-rule:nonzero;clip-rule:evenodd;stroke-linecap:round;stroke-linejoin:round;" version="1.1" viewBox="0 0 24 24" width="100%" xml:space="preserve" xmlns="http://www.w3.org/2000/svg" xmlns:vectornator="http://vectornator.io" xmlns:xlink="http://www.w3.org/1999/xlink">
<defs/>
<g id="Untitled" vectornator:layerName="Untitled">
<path d="M8 12C8 9.79086 9.79086 8 12 8C14.2091 8 16 9.79086 16 12C16 14.2091 14.2091 16 12 16C9.79086 16 8 14.2091 8 12Z" fill="#222222" fill-rule="nonzero" opacity="1" stroke="none" vectornator:layerName="circle"/>
<path d="M12 5L12 3" fill="none" opacity="1" stroke="#222222" stroke-linecap="round" stroke-linejoin="miter" stroke-width="2" vectornator:layerName="path"/>
<path d="M12 21L12 19" fill="none" opacity="1" stroke="#222222" stroke-linecap="round" stroke-linejoin="miter" stroke-width="2" vectornator:layerName="path"/>
<path d="M16.9498 7.04996L18.364 5.63574" fill="none" opacity="1" stroke="#222222" stroke-linecap="round" stroke-linejoin="miter" stroke-width="2" vectornator:layerName="path"/>
<path d="M5.63608 18.3644L7.05029 16.9502" fill="none" opacity="1" stroke="#222222" stroke-linecap="round" stroke-linejoin="miter" stroke-width="2" vectornator:layerName="path"/>
<path d="M19 12L21 12" fill="none" opacity="1" stroke="#222222" stroke-linecap="round" stroke-linejoin="miter" stroke-width="2" vectornator:layerName="path"/>
<path d="M3 12L5 12" fill="none" opacity="1" stroke="#222222" stroke-linecap="round" stroke-linejoin="miter" stroke-width="2" vectornator:layerName="path"/>
<path d="M16.9498 16.95L18.364 18.3643" fill="none" opacity="1" stroke="#222222" stroke-linecap="round" stroke-linejoin="miter" stroke-width="2" vectornator:layerName="path"/>
<path d="M5.63608 5.63559L7.05029 7.0498" fill="none" opacity="1" stroke="#222222" stroke-linecap="round" stroke-linejoin="miter" stroke-width="2" vectornator:layerName="path"/>
</g>
</svg>
