<?xml version="1.0" encoding="UTF-8" standalone="no"?>
<!DOCTYPE svg PUBLIC "-//W3C//DTD SVG 1.1//EN" "http://www.w3.org/Graphics/SVG/1.1/DTD/svg11.dtd">
<!-- Created with Vectornator (http://vectornator.io/) -->
<svg height="100%" stroke-miterlimit="10" style="fill-rule:nonzero;clip-rule:evenodd;stroke-linecap:round;stroke-linejoin:round;" version="1.1" viewBox="0 0 24 24" width="100%" xml:space="preserve" xmlns="http://www.w3.org/2000/svg" xmlns:vectornator="http://vectornator.io" xmlns:xlink="http://www.w3.org/1999/xlink">
<defs/>
<g id="Untitled" vectornator:layerName="Untitled">
<path d="M3.17157 3.17163C2 4.3432 2 6.22882 2 10.0001L2 12.6448L2 14.0001C2 17.7713 2 19.6569 3.17157 20.8285C4.34315 22.0001 6.22876 22.0001 10 22.0001L14 22.0001C17.7712 22.0001 19.6569 22.0001 20.8284 20.8285C22 19.6569 22 17.7713 22 14.0001L22 10.0001C22 7.16072 22 5.39024 21.5 4.18862L21.5 17.0001C20.5396 17.0001 19.6185 16.6185 18.9393 15.9394L18.1877 15.1877C17.4664 14.4664 17.1057 14.1058 16.6968 13.9538C16.2473 13.7867 15.7527 13.7867 15.3032 13.9538C14.8943 14.1058 14.5336 14.4664 13.8123 15.1877L13.6992 15.3009C13.1138 15.8862 12.8212 16.1789 12.5102 16.2335C12.2685 16.2759 12.0197 16.228 11.811 16.0988C11.5425 15.9327 11.3795 15.5522 11.0534 14.7913L11 14.6667C10.2504 12.9176 9.87554 12.043 9.22167 11.7152C8.89249 11.5502 8.52413 11.4792 8.1572 11.5102C7.42836 11.5717 6.75554 12.2445 5.40989 13.5902L3.5 15.5001L3.5 2.88745C3.3844 2.97355 3.27519 3.06801 3.17157 3.17163Z" fill="#000000" fill-rule="evenodd" opacity="1" stroke="none" vectornator:layerName="path"/>
<path d="M3 10C3 8.08611 3.00212 6.75129 3.13753 5.74416C3.26907 4.76579 3.50966 4.2477 3.87868 3.87868C4.2477 3.50966 4.76579 3.26907 5.74416 3.13753C6.75129 3.00212 8.08611 3 10 3L14 3C15.9139 3 17.2487 3.00212 18.2558 3.13753C19.2342 3.26907 19.7523 3.50966 20.1213 3.87868C20.4903 4.2477 20.7309 4.76579 20.8625 5.74416C20.9979 6.75129 21 8.08611 21 10L21 14C21 15.9139 20.9979 17.2487 20.8625 18.2558C20.7309 19.2342 20.4903 19.7523 20.1213 20.1213C19.7523 20.4903 19.2342 20.7309 18.2558 20.8625C17.2487 20.9979 15.9139 21 14 21L10 21C8.08611 21 6.75129 20.9979 5.74416 20.8625C4.76579 20.7309 4.2477 20.4903 3.87868 20.1213C3.50966 19.7523 3.26907 19.2342 3.13753 18.2558C3.00212 17.2487 3 15.9139 3 14L3 10Z" fill="none" opacity="1" stroke="#000000" stroke-linecap="butt" stroke-linejoin="miter" stroke-width="2" vectornator:layerName="path"/>
<path d="M13 9C13 7.89543 13.8954 7 15 7C16.1046 7 17 7.89543 17 9C17 10.1046 16.1046 11 15 11C13.8954 11 13 10.1046 13 9Z" fill="#000000" fill-rule="nonzero" opacity="1" stroke="none" vectornator:layerName="circle"/>
</g>
</svg>
