<?xml version="1.0" encoding="UTF-8" standalone="no"?>
<!DOCTYPE svg PUBLIC "-//W3C//DTD SVG 1.1//EN" "http://www.w3.org/Graphics/SVG/1.1/DTD/svg11.dtd">
<!-- Created with Vectornator (http://vectornator.io/) -->
<svg height="100%" stroke-miterlimit="10" style="fill-rule:nonzero;clip-rule:evenodd;stroke-linecap:round;stroke-linejoin:round;" version="1.1" viewBox="0 0 24 24" width="100%" xml:space="preserve" xmlns="http://www.w3.org/2000/svg" xmlns:vectornator="http://vectornator.io" xmlns:xlink="http://www.w3.org/1999/xlink">
<defs/>
<g id="Untitled" vectornator:layerName="Untitled">
<path d="M18.07 8.51013L9.51 4.23013C3.76 1.35013 1.4 3.71013 4.28 9.46013L5.15 11.2001C5.4 11.7101 5.4 12.3001 5.15 12.8101L4.28 14.5401C1.4 20.2901 3.75 22.6501 9.51 19.7701L18.07 15.4901C21.91 13.5701 21.91 10.4301 18.07 8.51013ZM14.84 12.7501L9.44 12.7501C9.03 12.7501 8.69 12.4101 8.69 12.0001C8.69 11.5901 9.03 11.2501 9.44 11.2501L14.84 11.2501C15.25 11.2501 15.59 11.5901 15.59 12.0001C15.59 12.4101 15.25 12.7501 14.84 12.7501Z" fill="#000000" fill-rule="nonzero" opacity="1" stroke="none" vectornator:layerName="path"/>
</g>
</svg>
